<svg xmlns="http://www.w3.org/2000/svg" width="14" height="19" viewBox="0 0 14 19" fill="none">
  <ellipse cx="7.25842" cy="4.49524" rx="3.73547" ry="3.73047" fill="#0F1829"/>
  <path d="M0 0.911688V1.44411H1.83312V0.911688C1.83312 0.408436 1.42414 0 0.920213 0C0.416287 0 0 0.408436 0 0.911688Z" fill="#0F1829"/>
  <path d="M4.20618 16.228H11.6263V1.28366C11.6263 0.576187 11.0493 0 10.3409 0H2.20508C2.38766 0.262566 2.49721 0.576187 2.49721 0.911688V18.5036C2.49721 18.5765 2.52642 18.6349 2.57024 18.686L3.39551 18.5036C3.95786 18.3796 4.22078 17.8837 4.22078 17.4752C4.22078 17.22 4.12584 16.9793 3.95056 16.7823C3.86292 16.6802 3.84101 16.5417 3.89214 16.425C3.94326 16.301 4.06741 16.228 4.19887 16.228H4.20618ZM7.00333 1.14508C8.79263 1.14508 10.2533 2.60378 10.2533 4.39069C10.2533 6.1776 8.79263 7.6363 7.00333 7.6363C5.21403 7.6363 3.75337 6.1776 3.75337 4.39069C3.75337 2.60378 5.20673 1.14508 7.00333 1.14508ZM4.08932 10.1161H9.58139C9.76397 10.1161 9.91734 10.2693 9.91734 10.4516C9.91734 10.6339 9.76397 10.7871 9.58139 10.7871H4.08932C3.90674 10.7871 3.75337 10.6339 3.75337 10.4516C3.75337 10.2693 3.90674 10.1161 4.08932 10.1161ZM8.78533 12.1437C8.78533 12.326 8.63196 12.4792 8.44938 12.4792H5.22863C5.04605 12.4792 4.89268 12.326 4.89268 12.1437C4.89268 11.9613 5.04605 11.8082 5.22863 11.8082H8.44938C8.63196 11.8082 8.78533 11.9613 8.78533 12.1437ZM3.75337 13.8358C3.75337 13.6534 3.90674 13.5003 4.08932 13.5003H9.58139C9.76397 13.5003 9.91734 13.6534 9.91734 13.8358C9.91734 14.0181 9.76397 14.1713 9.58139 14.1713H4.08932C3.90674 14.1713 3.75337 14.0181 3.75337 13.8358Z" fill="#0F1829"/>
  <path d="M7.00335 6.96525C8.42749 6.96525 9.58141 5.81288 9.58141 4.39065C9.58141 2.96841 8.42749 1.81604 7.00335 1.81604C5.57921 1.81604 4.42529 2.96841 4.42529 4.39065C4.42529 5.81288 5.57921 6.96525 7.00335 6.96525ZM6.6674 2.63291V2.31929C6.6674 2.13695 6.82077 1.98379 7.00335 1.98379C7.18593 1.98379 7.3393 2.13695 7.3393 2.31929V2.63291C7.83592 2.7642 8.20109 3.17263 8.20109 3.654C8.20109 3.83634 8.04772 3.9895 7.86514 3.9895C7.68255 3.9895 7.52919 3.83634 7.52919 3.654C7.52919 3.4352 7.28818 3.25286 7.00335 3.25286C6.71852 3.25286 6.47751 3.4352 6.47751 3.654C6.47751 3.87281 6.71852 4.05515 7.00335 4.05515C7.47076 4.05515 7.90165 4.30312 8.09154 4.68239C8.223 4.93766 8.2376 5.22211 8.13536 5.48467C8.02581 5.76912 7.7775 6.00251 7.46346 6.11921C7.41964 6.13379 7.38312 6.14109 7.3393 6.15567V6.46929C7.3393 6.65163 7.18593 6.8048 7.00335 6.8048C6.82077 6.8048 6.6674 6.65163 6.6674 6.46929V6.16297C6.34606 6.08274 6.06853 5.87123 5.91516 5.57949C5.86404 5.48467 5.83483 5.38986 5.82022 5.28775C5.79101 5.10541 5.91516 4.93037 6.09774 4.90119C6.28033 4.87202 6.4556 4.99601 6.48482 5.17834C6.48482 5.20752 6.49942 5.24399 6.51403 5.27316C6.59437 5.43362 6.79155 5.52843 7.00335 5.52843C7.07638 5.52843 7.15672 5.51385 7.22975 5.49197C7.36121 5.44091 7.46346 5.35339 7.50728 5.24399C7.52919 5.18564 7.54379 5.09812 7.49267 4.98871C7.41233 4.83555 7.21515 4.73344 7.00335 4.73344C6.34606 4.73344 5.80561 4.25207 5.80561 3.6613C5.80561 3.17263 6.17078 2.77149 6.6674 2.64021V2.63291Z" fill="#FF7400"/>
  <path d="M13.014 18.7954C13.5545 18.7954 14 18.3577 14 17.8107V16.899H4.79055C4.85628 17.0814 4.89279 17.2783 4.89279 17.4825C4.89279 18.0077 4.66639 18.4817 4.28662 18.7954H13.014Z" fill="#0F1829"/>
</svg>