<svg width="39" height="30" viewBox="0 0 39 30" fill="none" xmlns="http://www.w3.org/2000/svg">
<g clip-path="url(#clip0_499_218)">
<path d="M33.7474 0.666504H11.4185C8.84562 0.666504 6.73219 2.84459 6.73219 5.53854V6.51295H5.20684C2.87288 6.49384 0.943219 8.28981 0.594043 10.6207C0.557288 10.6972 0.53891 10.7927 0.53891 10.8882C0.53891 10.9264 0.53891 10.9838 0.53891 11.022C0.53891 11.1366 0.53891 11.2512 0.53891 11.3659V24.9503C0.53891 25.0649 0.53891 25.1795 0.53891 25.2942C0.53891 25.3324 0.53891 25.3897 0.53891 25.4279C0.53891 25.5234 0.557288 25.5999 0.594043 25.6954C0.943219 28.0263 2.87288 29.8223 5.20684 29.8223H27.5357C29.8697 29.8223 31.7994 28.0263 32.1485 25.6954C32.1853 25.619 32.2037 25.5234 32.2037 25.4279C32.2037 25.3706 32.2037 25.3324 32.2037 25.2751C32.2037 25.1604 32.2037 25.0649 32.2037 24.9503V23.9759H33.729C36.3019 23.9759 38.4153 21.7978 38.4153 19.1038V5.53854C38.4153 2.8637 36.3203 0.666504 33.729 0.666504H33.7474ZM5.22522 7.73573H27.5357C29.0978 7.73573 30.4026 8.80567 30.8621 10.2577H1.89886C2.33992 8.78656 3.66312 7.73573 5.22522 7.73573ZM1.73346 24.7974V11.4996H31.0275V24.7974H1.73346ZM27.5357 28.5613H5.22522C3.66312 28.5613 2.33992 27.4914 1.89886 26.0202H30.8621C30.421 27.4914 29.0978 28.5613 27.5357 28.5613ZM37.2391 19.1038C37.2391 21.1099 35.677 22.734 33.7474 22.734H32.222V11.3659C32.222 11.2512 32.222 11.1366 32.222 11.0411C32.222 11.0029 32.222 10.9455 32.222 10.8882C32.222 10.7927 32.2037 10.6972 32.1669 10.6207C31.8177 8.28981 29.8881 6.51295 27.5541 6.51295H7.94512V5.53854C7.94512 3.53241 9.50722 1.9084 11.4369 1.9084H33.7474C35.677 1.9084 37.2391 3.53241 37.2391 5.53854V19.1229V19.1038Z" fill="#FF7400"/>
<path d="M18.3095 13.5249C17.6111 13.5249 16.9679 13.6969 16.3798 13.9834C15.7734 13.6778 15.1302 13.5249 14.4502 13.5249C12.0059 13.5249 10.0028 15.6075 10.0028 18.1486C10.0028 20.6897 12.0059 22.7722 14.4502 22.7722C15.1118 22.7722 15.7734 22.6003 16.3798 22.3137C16.9679 22.6003 17.6111 22.7722 18.3095 22.7722C20.7537 22.7722 22.7569 20.6897 22.7569 18.1486C22.7569 15.6075 20.7537 13.5249 18.3095 13.5249ZM14.4502 21.5303C12.6492 21.5303 11.1973 20.0018 11.1973 18.1486C11.1973 16.2953 12.6675 14.7668 14.4502 14.7668C14.7075 14.7668 14.9464 14.805 15.1853 14.8623C14.3583 15.703 13.8621 16.8685 13.8621 18.1486C13.8621 19.4287 14.3767 20.5941 15.1853 21.4348C14.9464 21.4921 14.7075 21.5303 14.4502 21.5303ZM18.3095 21.5303C16.5085 21.5303 15.0566 20.0018 15.0566 18.1486C15.0566 16.2953 16.5269 14.7668 18.3095 14.7668C20.0921 14.7668 21.5623 16.2953 21.5623 18.1486C21.5623 20.0018 20.1105 21.5303 18.3095 21.5303Z" fill="#FF7400"/>
</g>
<defs>
<clipPath id="clip0_499_218">
<rect width="37.8764" height="29.1367" fill="white" transform="translate(0.53891 0.666504)"/>
</clipPath>
</defs>
</svg>
