      <svg xmlns="http://www.w3.org/2000/svg" width="20" height="18" viewBox="0 0 26 22" fill="none">
                        <path fill-rule="evenodd" clip-rule="evenodd"
                            d="M11.6545 0.367326C12.1443 -0.122442 12.9383 -0.122442 13.4281 0.367326L18.4446 5.38385C18.9344 5.87362 18.9344 6.66769 18.4446 7.15745C17.9549 7.64722 17.1608 7.64722 16.671 7.15745L13.7954 4.28187V15.0496C13.7954 15.7422 13.2339 16.3037 12.5413 16.3037C11.8487 16.3037 11.2872 15.7422 11.2872 15.0496V4.28187L8.41159 7.15745C7.92182 7.64722 7.12775 7.64722 6.63798 7.15745C6.14821 6.66769 6.14821 5.87362 6.63798 5.38385L11.6545 0.367326ZM3.76239 3.76239C3.06975 3.76239 2.50826 4.32388 2.50826 5.01652V17.5578C2.50826 18.2505 3.06975 18.812 3.76239 18.812H21.3202C22.0128 18.812 22.5743 18.2505 22.5743 17.5578V5.01652C22.5743 4.32388 22.0128 3.76239 21.3202 3.76239C20.6276 3.76239 20.0661 3.2009 20.0661 2.50826C20.0661 1.81562 20.6276 1.25413 21.3202 1.25413C23.3981 1.25413 25.0826 2.93861 25.0826 5.01652V17.5578C25.0826 19.6357 23.3981 21.3202 21.3202 21.3202H3.76239C1.68448 21.3202 0 19.6357 0 17.5578V5.01652C0 2.93861 1.68448 1.25413 3.76239 1.25413C4.45503 1.25413 5.01652 1.81562 5.01652 2.50826C5.01652 3.2009 4.45503 3.76239 3.76239 3.76239Z"
                            fill="white" />
                    </svg>